<svg height="64" preserveAspectRatio="none" viewBox="0 0 64 64" width="64" xmlns="http://www.w3.org/2000/svg" xmlns:xlink="http://www.w3.org/1999/xlink"><linearGradient id="a"><stop offset="0" stop-color="#926134"/><stop offset="1" stop-color="#c59d62"/></linearGradient><linearGradient id="b" gradientUnits="userSpaceOnUse" x1="32" x2="32" xlink:href="#a" y1="62" y2="32.399082"/><linearGradient id="c" gradientUnits="userSpaceOnUse" x1="32" x2="32" xlink:href="#a" y1="45.229168" y2="20.179905"/><linearGradient id="d" gradientUnits="userSpaceOnUse" x1="32" x2="32" xlink:href="#a" y1="29.057291" y2="3.901041"/><linearGradient id="e" gradientUnits="userSpaceOnUse" x1="27.069445" x2="27.069445" y1="20.4375" y2="4.5"><stop offset="0" stop-color="#fff" stop-opacity=".2"/><stop offset="1" stop-color="#fff" stop-opacity=".3"/></linearGradient><linearGradient id="f"><stop offset="0" stop-color="#fff" stop-opacity=".1"/><stop offset="1" stop-color="#fff" stop-opacity=".2"/></linearGradient><linearGradient id="g" gradientUnits="userSpaceOnUse" x1="32" x2="32" xlink:href="#f" y1="35.75" y2="25.75"/><linearGradient id="h" gradientUnits="userSpaceOnUse" x1="32" x2="32" xlink:href="#f" y1="53.846146" y2="40.75"/><path d="m56.09375 37.5810547c.5742188-1.3144531.8642578-2.7675781.8642578-4.3310547 0-4.1611328-2.5800781-7.7431641-7.4746094-10.3979492.1914063-.6884766.2871094-1.418457.2871094-2.1801758 0-11.0478516-16.7080078-17.4404297-17.4194336-17.7075195l-1.3510742-.5063477v1.4428711c0 4.8769531-4.1210938 6.6655273-8.4838867 8.559082-4.0742188 1.7685547-8.2871094 3.5966797-8.2871094 8.2119141 0 1.2705078.262207 2.434082.7817383 3.4750977-5.2900391 1.8276367-7.9692383 4.8857421-7.9692383 9.1030273 0 1.8183594.3920898 3.4804688 1.1669922 4.9560547-3.9550781 2.2851562-5.9584961 5.4492187-5.9584961 9.4189453 0 15.375 22.3916016 15.375 29.75 15.375s29.75 0 29.75-15.375c0-3.9042969-1.9023437-7.2792969-5.65625-10.0439453z" fill="#331c03"/><path d="m32 63.5c-7.4819336 0-30.25 0-30.25-15.875 0-4.0185547 1.9526367-7.2509766 5.8046875-9.6113281-.6723633-1.4394531-1.0131836-3.0390625-1.0131836-4.7636719 0-4.3085938 2.6201172-7.4658203 7.7900391-9.390625-.3999023-.9760742-.6025391-2.0454102-.6025391-3.1875 0-4.9428711 4.5615234-6.9228516 8.5864258-8.6699219 4.3925781-1.90625 8.1845703-3.5522461 8.1845703-8.1010742v-2.1640625l2.0263672.7592773c.7246094.2719727 17.7441406 6.7924805 17.7441406 18.1757813 0 .6660156-.0703125 1.3129883-.2089844 1.9287109 4.8408203 2.7270508 7.3964844 6.402832 7.3964844 10.6494141 0 1.4873047-.2539063 2.8857422-.7539063 4.1640625 3.6806641 2.8203125 5.5458985 6.2539063 5.5458985 10.2109375 0 15.875-22.7685547 15.875-30.25 15.875zm-.5-60.3208008v.7216797c0 5.2050781-4.4658203 7.1430664-8.784668 9.0175781-4.1079102 1.7832031-7.9863281 3.4667969-7.9863281 7.753418 0 1.1884766.2451172 2.2822266.7290039 3.2519531l.2543945.5097656-.5385742.1860352c-5.0644531 1.7495117-7.6323242 4.6533203-7.6323242 8.6303711 0 1.7324219.3735352 3.3212891 1.1098633 4.7236328l.2231445.4248047-.4160156.2402344c-3.7875977 2.1884765-5.7084961 5.211914-5.7084961 8.9863281 0 14.875 22.015625 14.875 29.25 14.875s29.25 0 29.25-14.875c0-3.7324219-1.8349609-6.9765625-5.453125-9.6416016l-.3212891-.2363281.1601563-.3662109c.5458984-1.2490234.8222656-2.6386719.8222656-4.1308594 0-3.9555664-2.4941406-7.3989258-7.2128906-9.9584961l-.3496094-.1899414.1064453-.3833008c.1777344-.6416016.2685547-1.3300781.2685547-2.0463867 0-10.6982422-16.3969727-16.9775391-17.0952148-17.2392578z" fill="#3e3a39"/><path d="m32 33.25c0-2.5 28.75 0 28.75 14.375s-21.5625 14.375-28.75 14.375-28.75 0-28.75-14.375 28.75-11.875 28.75-14.375z" fill="url(#b)"/><path d="m32 21.2708321c0-3.0208321 23.9583321 0 23.9583321 11.9791679s-17.96875 11.9791679-23.9583321 11.9791679-23.958333 0-23.958333-11.9791679 23.958333-8.958334 23.958333-11.9791679z" fill="url(#c)"/><path d="m32 3.9010413s16.7708321 6.2890625 16.7708321 16.770834c0 8.385416-12.578125 8.385416-16.7708321 8.385416s-16.7708321 0-16.7708321-8.385416 16.7708321-6.2890628 16.7708321-16.770834z" fill="url(#d)"/><path d="m32 4.5s8.75 7.5 0 12.5-13.75 3.75-13.75 1.25 3.75-3.75 6.25-5c5-2.5 7.5-5 7.5-8.75z" fill="url(#e)"/><path d="m48.25 25.75s-1.25 3.75-16.25 3.75-16.25-3.75-16.25-3.75-2.5 0-3.75 2.5c-1.5811386 3.1622772 2.5 7.5 20 7.5s21.5811386-4.3377228 20-7.5c-1.25-2.5-3.75-2.5-3.75-2.5z" fill="url(#g)"/><path d="m54.5 40.75s-5.2537918 5.9102249-22.5 5.9102249-22.5-5.9102249-22.5-5.9102249-2.8743682.2745209-4.3115525 3.1488914c-1.81791 3.6358185 6.6909747 9.9472542 26.8115525 9.9472542s28.6294632-6.3114357 26.811554-9.9472542c-1.4371872-2.8743705-4.311554-3.1488914-4.311554-3.1488914z" fill="url(#h)"/><path d="m51.0886726 33.9206848c0 10.6617775-8.4832649 19.3091507-18.9488907 19.3091507-10.4651966 0-18.9492378-8.6473732-18.9492378-19.3091507 7.6506033-.2216072 8.4840422 0 18.9492378 0z" fill="#842c38"/><path d="m32.0103989 40.097702c-6.4873886 0-13.1591511 2.9142685-13.1591511 6.7335052 0 3.8175087 6.6717625 6.2387619 13.1591511 6.2387619 6.4865265 0 12.9900208-2.4212532 12.9900208-6.2387619-.0000001-3.8192367-6.5034943-6.7335052-12.9900208-6.7335052z" fill="#ea7c91"/><path d="m32.0103989 44.9047012c-7.0366936-.0025101-13.6700058 1.7438698-11.8868217 4.176899 3.0348148 4.1397476 9.5641193 4.2987442 11.8868217 4.215004 1.7320023.0837402 8.8520088-.0752563 11.8872566-4.215004 1.7827492-2.4330292-4.9499779-4.1743851-11.8872566-4.176899z" fill="#e42a56"/><path d="m13.190544 34.78669h37.601261v3.409881h-37.601261z" fill="#fff"/><g fill="#350000"><path d="m32.1397934 54.0958023c-10.9260807 0-19.8152809-9.0507278-19.8152809-20.1751251v-.8660011h39.6301384v.8660011c0 11.1243973-8.8892021 20.1751251-19.8148575 20.1751251zm-18.0634041-19.309124c.4448404 9.7687302 8.3771267 17.5771217 18.0634041 17.5771217 9.6858521 0 17.6177177-7.8083916 18.0634041-17.5771217z"/><ellipse cx="22.076525" cy="22.592869" rx="2.668843" ry="3.91857"/><ellipse cx="42.202473" cy="22.592869" rx="2.668194" ry="3.91857"/></g></svg>